<svg width="179" height="50" viewBox="0 0 179 50" fill="none" xmlns="http://www.w3.org/2000/svg">
<path d="M11.371 0C10.7594 3.66931 11.8169 7.70809 12.4221 9.26882C5.38924 11.6386 1.21034 19.2384 0 22.7421C0.305776 22.207 2.42069 21.4361 3.43992 21.1176C2.35697 22.551 0.324836 26.8509 0.859943 32.5842C1.39505 38.3175 5.73324 43.7004 7.83545 45.6752C7.29399 45.1019 6.11553 43.0188 5.73331 39.2731C5.35109 35.5273 7.86733 31.6605 9.17323 30.1953C7.5488 35.5464 9.07767 41.1842 13.6643 45.8663C17.3336 49.6121 23.2516 50.1345 25.4176 49.9752C26.3413 49.9752 29.7176 49.7841 32.7753 48.3508C36.31 46.6939 39.0819 44.1464 40.6108 41.5664C40.7163 41.3884 41.5664 40.2286 43.0952 36.3109C44.65 32.3267 44.0189 27.5517 43.3819 25.6087C43.6112 28.8958 41.8211 33.5398 40.8974 35.4509C40.821 33.5398 39.8463 31.1509 39.3686 30.1953C38.5723 28.6983 36.0624 25.6469 32.3931 25.4176C27.8064 25.1309 26.4687 25.4176 23.9842 27.3287C21.4998 29.2398 20.9265 32.202 21.4043 34.5909C21.882 36.9797 23.3032 38.5341 26.0864 38.4131C28.2842 38.3175 28.7301 37.1071 28.6664 36.3109C28.6027 36.6612 28.074 37.2473 26.4687 36.7886C24.8633 36.33 25.099 34.6227 25.4176 33.8264C26.0227 32.6798 27.9402 30.826 30.7686 32.5842C33.5971 34.3424 33.2849 37.139 32.7753 38.3175C32.1701 39.4642 30.2717 41.7193 27.5198 41.5664C24.0798 41.3753 21.9776 40.7064 19.9709 38.0308C17.9643 35.3553 18.6332 31.1509 19.5887 29.2398C20.5443 27.3287 23.2198 24.9398 26.8509 23.6021C30.482 22.2643 35.7375 23.3154 37.6486 23.6021C39.1775 23.8314 40.3241 23.3154 40.7063 23.0287C42.6939 21.8821 44.7196 18.4102 45.4841 16.8177C45.4841 16.8177 42.1215 15.6628 39.9419 15.0021C38.7891 14.6527 38.1229 14.5218 36.9797 14.1421C35.9601 13.8034 34.3997 13.1866 34.3997 13.1866C31.7242 10.3581 30.1635 9.14142 29.7175 8.8866C27.2713 7.73995 22.8376 6.87995 20.9265 6.59329C19.5505 4.45286 13.9828 1.30592 11.371 0Z" fill="white"/>
<path d="M13.1963 3.24074C12.8131 9.84993 17.6024 13.1066 18.5603 13.4898C16.0315 14.3327 13.8668 12.2446 13.1005 11.0951C8.34951 12.781 4.99064 17.2893 3.90507 19.3327C4.82461 18.7197 7.16182 18.2471 8.21549 18.0875C7.4492 18.758 4.76719 21.1526 3.42621 25.463C2.03932 29.9209 3.17079 35.1692 4.09671 37.3404C4.09671 33.7388 6.84256 29.9649 8.21549 28.5281C8.21549 20.099 13.771 15.9483 16.5488 14.9266C13.1772 17.6086 11.6957 22.0466 11.3764 23.9304C14.6714 20.2522 20.476 19.5881 22.9664 19.7158C15.1504 23.0875 12.0149 27.9215 11.4721 30.0607C11.1562 31.3059 10.2844 35.348 12.0469 40.4055C13.8093 45.463 19.7417 47.3659 22.4875 47.6852C15.8208 45.0798 14.0903 39.1922 14.0584 36.5741C14.9779 40.7886 19.1669 43.758 21.1465 44.7158C22.6152 45.514 26.6637 46.9764 31.1082 46.44C35.5526 45.9036 38.0686 42.3212 38.771 40.5971C39.3954 39.0645 39.7289 36.1909 38.6752 33.03C37.5527 29.6624 34.2372 27.8257 32.545 27.3787C31.4275 27.0913 28.2734 26.6135 25.5526 28.5281C22.9664 30.348 22.9984 33.8602 23.5411 35.5204C23.5092 34.4668 24.0392 32.0722 26.4147 30.9227C28.7902 29.7733 31.1082 30.5715 31.9703 31.1143C33.439 31.8487 36.089 34.3135 34.9396 38.2982C33.7902 42.2829 30.6293 43.4706 29.1925 43.5664C27.628 43.6303 23.886 43.3748 21.4339 41.8423C18.9818 40.3097 17.6024 37.8831 17.2193 36.8614C16.9639 36.3186 16.568 34.4476 17.0277 31.3059C17.4875 28.1641 20.3483 25.2714 21.7212 24.2178C22.6791 23.5473 25.2844 22.0913 28.0431 21.6315C30.725 20.8653 34.7161 21.3761 36.3764 21.7273C37.6024 22.1105 39.1222 22.0147 39.7289 21.9189C41.0316 21.3059 42.1235 19.8755 42.5067 19.2369C41.5105 18.6239 41.1976 17.5766 41.1657 17.1296C39.7864 16.8997 35.6101 15.3736 33.6944 14.6392C33.0558 13.8729 31.4913 12.0913 30.3419 11.0951C29.1925 10.099 24.8183 8.89208 22.7749 8.41315L23.5411 10.712H22.0086C20.0929 7.49361 15.3355 4.39016 13.1963 3.24074Z" fill="black" fill-opacity="0.76"/>
<path d="M29.5562 15.2778C29.3065 14.6952 27.6491 13.5787 26.8516 13.0933C26.9348 12.9268 29.7295 12.9546 31.1165 12.9893L32.9889 15.2778H29.5562Z" fill="white"/>
<path d="M58.985 21.2321V8.63214H60.209V14.4641H67.769V8.63214H68.993V21.2321H67.769V14.8961H60.209V21.2321H58.985ZM72.6003 8.63214H73.8243V16.2281C73.8243 17.6801 74.1783 18.8141 74.8863 19.6301C75.6063 20.4341 76.6143 20.8361 77.9103 20.8361C78.7263 20.8361 79.4343 20.6801 80.0343 20.3681C80.6463 20.0441 81.1143 19.6001 81.4383 19.0361C81.7743 18.4721 81.9303 17.8241 81.9063 17.0921L81.6003 8.63214H82.8243L82.5183 17.0921C82.4703 18.5321 82.0383 19.6241 81.2223 20.3681C80.4183 21.1121 79.2663 21.4841 77.7663 21.4841C76.1463 21.4841 74.8803 21.0161 73.9683 20.0801C73.0563 19.1321 72.6003 17.8361 72.6003 16.1921V8.63214ZM85.9717 21.2321L86.4217 8.38014H86.6377L95.6917 19.3241H95.7997L95.4037 8.63214H96.6277L96.1777 21.4841H95.9617L86.9077 10.5401H86.7997L87.1957 21.2321H85.9717ZM100.142 21.2321V8.63214H104.102C105.494 8.63214 106.706 8.89614 107.738 9.42414C108.77 9.95214 109.574 10.6901 110.15 11.6381C110.726 12.5741 111.014 13.6721 111.014 14.9321C111.014 16.1921 110.726 17.2961 110.15 18.2441C109.574 19.1801 108.77 19.9121 107.738 20.4401C106.706 20.9681 105.494 21.2321 104.102 21.2321H100.142ZM104.102 9.06414H101.366V20.8001H104.102C105.842 20.8001 107.198 20.2841 108.17 19.2521C109.154 18.2201 109.646 16.7801 109.646 14.9321C109.646 13.0841 109.154 11.6441 108.17 10.6121C107.198 9.58014 105.842 9.06414 104.102 9.06414ZM113.903 21.2321V8.63214H115.127V21.2321H113.903ZM118.009 14.9321C118.009 14.0081 118.171 13.1501 118.495 12.3581C118.831 11.5541 119.293 10.8581 119.881 10.2701C120.481 9.67014 121.177 9.20814 121.969 8.88414C122.773 8.54814 123.637 8.38014 124.561 8.38014C125.485 8.38014 126.343 8.54814 127.135 8.88414C127.939 9.20814 128.635 9.67014 129.223 10.2701C129.823 10.8581 130.285 11.5541 130.609 12.3581C130.945 13.1501 131.113 14.0081 131.113 14.9321C131.113 15.8561 130.945 16.7201 130.609 17.5241C130.285 18.3161 129.823 19.0121 129.223 19.6121C128.635 20.2001 127.939 20.6621 127.135 20.9981C126.343 21.3221 125.485 21.4841 124.561 21.4841C123.637 21.4841 122.773 21.3221 121.969 20.9981C121.177 20.6621 120.481 20.2001 119.881 19.6121C119.293 19.0121 118.831 18.3161 118.495 17.5241C118.171 16.7201 118.009 15.8561 118.009 14.9321ZM119.377 14.9321C119.377 16.1561 119.593 17.2301 120.025 18.1541C120.457 19.0661 121.063 19.7801 121.843 20.2961C122.623 20.8001 123.529 21.0521 124.561 21.0521C125.593 21.0521 126.499 20.8001 127.279 20.2961C128.059 19.7801 128.665 19.0601 129.097 18.1361C129.529 17.2121 129.745 16.1441 129.745 14.9321C129.745 13.7201 129.529 12.6581 129.097 11.7461C128.665 10.8221 128.059 10.1021 127.279 9.58614C126.499 9.07014 125.593 8.81214 124.561 8.81214C123.529 8.81214 122.623 9.07014 121.843 9.58614C121.075 10.0901 120.469 10.8041 120.025 11.7281C119.593 12.6401 119.377 13.7081 119.377 14.9321ZM133.987 8.63214H136.399C137.671 8.63214 138.655 8.90214 139.351 9.44214C140.059 9.97014 140.413 10.7141 140.413 11.6741C140.413 12.4181 140.191 13.0361 139.747 13.5281C139.315 14.0201 138.685 14.3501 137.857 14.5181V14.6261C138.649 14.7821 139.297 15.1541 139.801 15.7421C140.305 16.3301 140.683 17.0561 140.935 17.9201C141.163 18.7121 141.385 19.3301 141.601 19.7741C141.829 20.2061 142.075 20.5181 142.339 20.7101C142.615 20.9021 142.939 21.0401 143.311 21.1241V21.2321H142.573C142.045 21.2321 141.607 21.1361 141.259 20.9441C140.923 20.7521 140.635 20.4281 140.395 19.9721C140.155 19.5161 139.927 18.8861 139.711 18.0821C139.363 16.8461 138.901 15.9701 138.325 15.4541C137.749 14.9381 137.047 14.6801 136.219 14.6801H136.111V14.3561H136.219C138.151 14.3561 139.117 13.4681 139.117 11.6921C139.117 9.94014 138.211 9.06414 136.399 9.06414H135.211V21.2321H133.987V8.63214ZM144.456 8.63214H145.68V16.2281C145.68 17.6801 146.034 18.8141 146.742 19.6301C147.462 20.4341 148.47 20.8361 149.766 20.8361C150.582 20.8361 151.29 20.6801 151.89 20.3681C152.502 20.0441 152.97 19.6001 153.294 19.0361C153.63 18.4721 153.786 17.8241 153.762 17.0921L153.456 8.63214H154.68L154.374 17.0921C154.326 18.5321 153.894 19.6241 153.078 20.3681C152.274 21.1121 151.122 21.4841 149.622 21.4841C148.002 21.4841 146.736 21.0161 145.824 20.0801C144.912 19.1321 144.456 17.8361 144.456 16.1921V8.63214ZM61.865 42.2321V29.9921C61.685 29.9921 61.313 30.0281 60.749 30.1001L57.221 30.5501V29.6321H67.733V30.5501L64.205 30.1001C63.641 30.0281 63.269 29.9921 63.089 29.9921V42.2321H61.865ZM69.5769 29.6321H70.8009V37.2281C70.8009 38.6801 71.1549 39.8141 71.8629 40.6301C72.5829 41.4341 73.5909 41.8361 74.8869 41.8361C75.7029 41.8361 76.4109 41.6801 77.0109 41.3681C77.6229 41.0441 78.0909 40.6001 78.4149 40.0361C78.7509 39.4721 78.9069 38.8241 78.8829 38.0921L78.5769 29.6321H79.8009L79.4949 38.0921C79.4469 39.5321 79.0149 40.6241 78.1989 41.3681C77.3949 42.1121 76.2429 42.4841 74.7429 42.4841C73.1229 42.4841 71.8569 42.0161 70.9449 41.0801C70.0329 40.1321 69.5769 38.8361 69.5769 37.1921V29.6321ZM83.0382 29.6321H84.2622V37.2281C84.2622 38.6801 84.6162 39.8141 85.3242 40.6301C86.0442 41.4341 87.0522 41.8361 88.3482 41.8361C89.1642 41.8361 89.8722 41.6801 90.4722 41.3681C91.0842 41.0441 91.5522 40.6001 91.8762 40.0361C92.2122 39.4721 92.3682 38.8241 92.3442 38.0921L92.0382 29.6321H93.2622L92.9562 38.0921C92.9082 39.5321 92.4762 40.6241 91.6602 41.3681C90.8562 42.1121 89.7042 42.4841 88.2042 42.4841C86.5842 42.4841 85.3182 42.0161 84.4062 41.0801C83.4942 40.1321 83.0382 38.8361 83.0382 37.1921V29.6321ZM96.6796 29.6321H97.9036V41.8721C98.1316 41.8721 98.4916 41.8361 98.9836 41.7641L101.972 41.3141V42.2321H96.6796V29.6321ZM104.076 42.2321V29.6321H105.3V42.2321H104.076ZM116.859 42.2321L110.955 35.7701L116.427 29.6321H117.975L112.053 35.2661L118.479 42.2321H116.859ZM109.083 42.2321V29.6321H110.307V42.2321H109.083Z" fill="white"/>
</svg>
