<svg width="1920" height="271" viewBox="0 0 1920 271" fill="none" xmlns="http://www.w3.org/2000/svg">
<g filter="url(#filter0_g_103_2098)">
<path d="M224.784 224.817C204.786 227.89 70.4595 181.996 5.7964 158.665C-9.5361 143.3 -38.9012 110.779 -33.7014 103.609C-27.2018 94.646 -94.8067 31.9077 -21.8106 23.3719C51.1854 14.8361 169.195 64.3438 275.189 55.3812C381.184 46.4186 310.687 44.7115 337.686 44.7115C364.685 44.7115 369.673 73.3064 607.66 32.3345C636.159 27.4283 666.201 2.12839 786.651 23.3719C907.644 44.7115 811.649 32.3345 924.143 44.7115C1036.64 57.0884 1021.69 55.3812 1054.69 55.3812C1087.69 55.3812 1064.66 66.3079 1195.69 55.3812C1323.65 44.7115 1260.19 55.3812 1293.69 44.7115C1327.19 34.0417 1332.6 49.1544 1489.11 32.3345C1654.59 14.5521 1688.69 43.0043 1744.69 55.3812C1800.69 67.7582 1822.69 21.6648 1920.69 44.7115C2018.68 67.7581 1911.69 74.9268 1953.19 80.4751C1986.39 84.9137 1961.75 102.47 1975.09 103.609L1957.19 158.665C1934.19 162.221 1883.59 171.81 1865.19 181.711C1842.2 194.088 1819.2 181.711 1784.2 197.929C1749.2 214.147 1725.7 224.817 1688.2 237.194C1650.71 249.571 1604.71 237.194 1556.71 251.278C1508.71 265.362 1454.72 237.194 1367.22 224.817C1279.73 212.44 1287.73 181.711 1262.73 181.711C1237.73 181.711 1029.24 206.892 1016.74 215.854C1004.24 224.817 889.748 237.194 808.253 237.194C726.757 237.194 616.763 224.817 574.765 224.817C532.768 224.817 462.272 180.004 424.774 181.711C387.276 183.418 249.783 220.976 224.784 224.817Z" fill="#F5F5F5"/>
</g>
<defs>
<filter id="filter0_g_103_2098" x="-71" y="0" width="2061.09" height="270.129" filterUnits="userSpaceOnUse" color-interpolation-filters="sRGB">
<feFlood flood-opacity="0" result="BackgroundImageFix"/>
<feBlend mode="normal" in="SourceGraphic" in2="BackgroundImageFix" result="shape"/>
<feTurbulence type="fractalNoise" baseFrequency="0.10000000149011612 0.10000000149011612" numOctaves="3" seed="4036" />
<feDisplacementMap in="shape" scale="30" xChannelSelector="R" yChannelSelector="G" result="displacedImage" width="100%" height="100%" />
<feMerge result="effect1_texture_103_2098">
<feMergeNode in="displacedImage"/>
</feMerge>
</filter>
</defs>
</svg>
