<svg width="20" height="20" viewBox="0 0 20 20" fill="none" xmlns="http://www.w3.org/2000/svg">
<path opacity="0.4" d="M17.6139 9.60748C17.6139 14.0302 14.0294 17.6139 9.60748 17.6139C5.18554 17.6139 1.60107 14.0302 1.60107 9.60748C1.60107 5.18634 5.18554 1.60107 9.60748 1.60107C14.0294 1.60107 17.6139 5.18634 17.6139 9.60748Z" fill="white"/>
<path d="M12.4686 12.6613C12.3637 12.6613 12.258 12.6341 12.1611 12.5773L9.01782 10.7022C8.83687 10.5933 8.72559 10.3971 8.72559 10.1857V6.14491C8.72559 5.81345 8.9946 5.54443 9.32607 5.54443C9.65753 5.54443 9.92655 5.81345 9.92655 6.14491V9.84468L12.7768 11.5444C13.0611 11.715 13.1547 12.0833 12.985 12.3683C12.8721 12.5564 12.6727 12.6613 12.4686 12.6613Z" fill="white"/>
</svg>
