<svg width="156" height="78" viewBox="0 0 156 78" fill="none" xmlns="http://www.w3.org/2000/svg">
<path d="M38.4763 56V46.2H39.4283V50.736H45.3083V46.2H46.2603V56H45.3083V51.072H39.4283V56H38.4763ZM49.7659 46.2H50.7179V52.108C50.7179 53.2373 50.9933 54.1193 51.5439 54.754C52.1039 55.3793 52.8879 55.692 53.8959 55.692C54.5306 55.692 55.0813 55.5707 55.5479 55.328C56.0239 55.076 56.3879 54.7307 56.6399 54.292C56.9013 53.8533 57.0226 53.3493 57.0039 52.78L56.7659 46.2H57.7179L57.4799 52.78C57.4426 53.9 57.1066 54.7493 56.4719 55.328C55.8466 55.9067 54.9506 56.196 53.7839 56.196C52.5239 56.196 51.5393 55.832 50.8299 55.104C50.1206 54.3667 49.7659 53.3587 49.7659 52.08V46.2ZM60.8659 56L61.2159 46.004H61.3839L68.4259 54.516H68.5099L68.2019 46.2H69.1539L68.8039 56.196H68.6359L61.5939 47.684H61.5099L61.8179 56H60.8659ZM72.5876 56V46.2H75.6676C76.7502 46.2 77.6929 46.4053 78.4956 46.816C79.2982 47.2267 79.9236 47.8007 80.3716 48.538C80.8196 49.266 81.0436 50.12 81.0436 51.1C81.0436 52.08 80.8196 52.9387 80.3716 53.676C79.9236 54.404 79.2982 54.9733 78.4956 55.384C77.6929 55.7947 76.7502 56 75.6676 56H72.5876ZM75.6676 46.536H73.5396V55.664H75.6676C77.0209 55.664 78.0756 55.2627 78.8316 54.46C79.5969 53.6573 79.9796 52.5373 79.9796 51.1C79.9796 49.6627 79.5969 48.5427 78.8316 47.74C78.0756 46.9373 77.0209 46.536 75.6676 46.536ZM83.9899 56V46.2H84.9419V56H83.9899ZM87.8837 51.1C87.8837 50.3813 88.0097 49.714 88.2617 49.098C88.523 48.4727 88.8823 47.9313 89.3397 47.474C89.8063 47.0073 90.3477 46.648 90.9637 46.396C91.589 46.1347 92.261 46.004 92.9797 46.004C93.6983 46.004 94.3657 46.1347 94.9817 46.396C95.607 46.648 96.1483 47.0073 96.6057 47.474C97.0723 47.9313 97.4317 48.4727 97.6837 49.098C97.945 49.714 98.0757 50.3813 98.0757 51.1C98.0757 51.8187 97.945 52.4907 97.6837 53.116C97.4317 53.732 97.0723 54.2733 96.6057 54.74C96.1483 55.1973 95.607 55.5567 94.9817 55.818C94.3657 56.07 93.6983 56.196 92.9797 56.196C92.261 56.196 91.589 56.07 90.9637 55.818C90.3477 55.5567 89.8063 55.1973 89.3397 54.74C88.8823 54.2733 88.523 53.732 88.2617 53.116C88.0097 52.4907 87.8837 51.8187 87.8837 51.1ZM88.9477 51.1C88.9477 52.052 89.1157 52.8873 89.4517 53.606C89.7877 54.3153 90.259 54.8707 90.8657 55.272C91.4723 55.664 92.177 55.86 92.9797 55.86C93.7823 55.86 94.487 55.664 95.0937 55.272C95.7003 54.8707 96.1717 54.3107 96.5077 53.592C96.8437 52.8733 97.0117 52.0427 97.0117 51.1C97.0117 50.1573 96.8437 49.3313 96.5077 48.622C96.1717 47.9033 95.7003 47.3433 95.0937 46.942C94.487 46.5407 93.7823 46.34 92.9797 46.34C92.177 46.34 91.4723 46.5407 90.8657 46.942C90.2683 47.334 89.797 47.8893 89.4517 48.608C89.1157 49.3173 88.9477 50.148 88.9477 51.1ZM101.011 46.2H102.887C103.877 46.2 104.642 46.41 105.183 46.83C105.734 47.2407 106.009 47.8193 106.009 48.566C106.009 49.1447 105.837 49.6253 105.491 50.008C105.155 50.3907 104.665 50.6473 104.021 50.778V50.862C104.637 50.9833 105.141 51.2727 105.533 51.73C105.925 52.1873 106.219 52.752 106.415 53.424C106.593 54.04 106.765 54.5207 106.933 54.866C107.111 55.202 107.302 55.4447 107.507 55.594C107.722 55.7433 107.974 55.8507 108.263 55.916V56H107.689C107.279 56 106.938 55.9253 106.667 55.776C106.406 55.6267 106.182 55.3747 105.995 55.02C105.809 54.6653 105.631 54.1753 105.463 53.55C105.193 52.5887 104.833 51.9073 104.385 51.506C103.937 51.1047 103.391 50.904 102.747 50.904H102.663V50.652H102.747C104.25 50.652 105.001 49.9613 105.001 48.58C105.001 47.2173 104.297 46.536 102.887 46.536H101.963V56H101.011V46.2ZM109.854 46.2H110.806V52.108C110.806 53.2373 111.081 54.1193 111.632 54.754C112.192 55.3793 112.976 55.692 113.984 55.692C114.618 55.692 115.169 55.5707 115.636 55.328C116.112 55.076 116.476 54.7307 116.728 54.292C116.989 53.8533 117.11 53.3493 117.092 52.78L116.854 46.2H117.806L117.568 52.78C117.53 53.9 117.194 54.7493 116.56 55.328C115.934 55.9067 115.038 56.196 113.872 56.196C112.612 56.196 111.627 55.832 110.918 55.104C110.208 54.3667 109.854 53.3587 109.854 52.08V46.2ZM56.1245 72V62.48C55.9845 62.48 55.6951 62.508 55.2565 62.564L52.5125 62.914V62.2H60.6885V62.914L57.9445 62.564C57.5058 62.508 57.2165 62.48 57.0765 62.48V72H56.1245ZM62.8226 62.2H63.7746V68.108C63.7746 69.2373 64.0499 70.1193 64.6006 70.754C65.1606 71.3793 65.9446 71.692 66.9526 71.692C67.5872 71.692 68.1379 71.5707 68.6046 71.328C69.0806 71.076 69.4446 70.7307 69.6966 70.292C69.9579 69.8533 70.0792 69.3493 70.0606 68.78L69.8226 62.2H70.7746L70.5366 68.78C70.4992 69.9 70.1632 70.7493 69.5286 71.328C68.9032 71.9067 68.0072 72.196 66.8406 72.196C65.5806 72.196 64.5959 71.832 63.8866 71.104C63.1772 70.3667 62.8226 69.3587 62.8226 68.08V62.2ZM73.9925 62.2H74.9445V68.108C74.9445 69.2373 75.2198 70.1193 75.7705 70.754C76.3305 71.3793 77.1145 71.692 78.1225 71.692C78.7572 71.692 79.3078 71.5707 79.7745 71.328C80.2505 71.076 80.6145 70.7307 80.8665 70.292C81.1278 69.8533 81.2492 69.3493 81.2305 68.78L80.9925 62.2H81.9445L81.7065 68.78C81.6692 69.9 81.3332 70.7493 80.6985 71.328C80.0732 71.9067 79.1772 72.196 78.0105 72.196C76.7505 72.196 75.7658 71.832 75.0565 71.104C74.3472 70.3667 73.9925 69.3587 73.9925 68.08V62.2ZM85.3024 62.2H86.2544V71.72C86.4318 71.72 86.7118 71.692 87.0944 71.636L89.4184 71.286V72H85.3024V62.2ZM91.7555 72V62.2H92.7075V72H91.7555ZM102.397 72L97.8053 66.974L102.061 62.2H103.265L98.6593 66.582L103.657 72H102.397ZM96.3493 72V62.2H97.3013V72H96.3493Z" fill="black"/>
<path d="M71.0968 0C70.6076 2.93545 71.4535 6.16648 71.9377 7.41506C66.3114 9.31087 62.9683 15.3907 62 18.1937C62.2446 17.7656 63.9366 17.1489 64.7519 16.8941C63.8856 18.0408 62.2599 21.4807 62.688 26.0674C63.116 30.654 66.5866 34.9604 68.2684 36.5402C67.8352 36.0815 66.8924 34.4151 66.5866 31.4184C66.2809 28.4218 68.2939 25.3284 69.3386 24.1563C68.039 28.4371 69.2621 32.9473 72.9314 36.6931C75.8669 39.6897 80.6013 40.1076 82.334 39.9802C83.073 39.9802 85.7741 39.8273 88.2202 38.6806C91.048 37.3551 93.2656 35.3171 94.4887 33.2531C94.573 33.1107 95.2531 32.1829 96.4762 29.0487C97.72 25.8614 97.2151 22.0413 96.7055 20.487C96.889 23.1166 95.4569 26.8318 94.718 28.3607C94.6568 26.8318 93.8771 24.9207 93.4949 24.1563C92.8578 22.9587 90.8499 20.5175 87.9144 20.3341C84.2451 20.1047 83.1749 20.3341 81.1874 21.863C79.1998 23.3918 78.7412 25.7616 79.1234 27.6727C79.5056 29.5838 80.6426 30.8273 82.8692 30.7305C84.6274 30.654 84.9841 29.6857 84.9331 29.0487C84.8822 29.329 84.4592 29.7978 83.1749 29.4309C81.8907 29.064 82.0792 27.6982 82.334 27.0611C82.8182 26.1438 84.3522 24.6608 86.6149 26.0674C88.8776 27.4739 88.6279 29.7112 88.2202 30.654C87.7361 31.5713 86.2174 33.3754 84.0158 33.2531C81.2638 33.1002 79.5821 32.5651 77.9767 30.4247C76.3714 28.2842 76.9065 24.9207 77.671 23.3918C78.4354 21.863 80.5758 19.9519 83.4807 18.8816C86.3856 17.8114 90.59 18.6523 92.1189 18.8816C93.342 19.0651 94.2593 18.6523 94.5651 18.423C96.1551 17.5057 97.7757 14.7282 98.3873 13.4541C98.3873 13.4541 95.6972 12.5302 93.9535 12.0017C93.0313 11.7221 92.4983 11.6175 91.5838 11.3137C90.7681 11.0427 89.5198 10.5493 89.5198 10.5493C87.3793 8.28652 86.1308 7.31313 85.774 7.10928C83.8171 6.19196 80.2701 5.50396 78.7412 5.27463C77.6404 3.56229 73.1863 1.04473 71.0968 0Z" fill="black"/>
<path d="M72.5569 2.59253C72.2504 7.87989 76.0818 10.4852 76.8481 10.7918C74.8251 11.4661 73.0933 9.79559 72.4803 8.87605C68.6795 10.2247 65.9924 13.8314 65.124 15.4661C65.8596 14.9757 67.7294 14.5976 68.5723 14.4699C67.9593 15.0063 65.8137 16.922 64.7409 20.3703C63.6314 23.9366 64.5365 28.1353 65.2773 29.8722C65.2773 26.991 67.474 23.9718 68.5723 22.8224C68.5723 16.0791 73.0167 12.7586 75.239 11.9412C72.5416 14.0868 71.3565 17.6372 71.101 19.1443C73.737 16.2017 78.3807 15.6704 80.3731 15.7726C74.1202 18.4699 71.6118 22.3371 71.1776 24.0485C70.9249 25.0446 70.2275 28.2784 71.6374 32.3243C73.0474 36.3703 77.7932 37.8927 79.9899 38.1481C74.6566 36.0638 73.2722 31.3537 73.2466 29.2592C73.9822 32.6308 77.3335 35.0063 78.9171 35.7726C80.0921 36.4112 83.3309 37.581 86.8865 37.1519C90.442 36.7228 92.4548 33.8569 93.0167 32.4776C93.5162 31.2515 93.783 28.9527 92.9401 26.4239C92.0421 23.7298 89.3897 22.2605 88.0359 21.9029C87.1419 21.673 84.6186 21.2907 82.442 22.8224C80.3731 24.2784 80.3986 27.0881 80.8328 28.4163C80.8073 27.5734 81.2313 25.6577 83.1317 24.7381C85.0321 23.8186 86.8865 24.4572 87.5761 24.8914C88.7511 25.4789 90.8711 27.4508 89.9516 30.6385C89.0321 33.8262 86.5033 34.7764 85.3539 34.8531C84.1023 34.9042 81.1087 34.6998 79.147 33.4738C77.1853 32.2477 76.0819 30.3065 75.7753 29.4891C75.571 29.0549 75.2543 27.558 75.6221 25.0446C75.9899 22.5312 78.2785 20.2171 79.3769 19.3741C80.1432 18.8377 82.2275 17.673 84.4343 17.3052C86.5799 16.6921 89.7728 17.1008 91.101 17.3818C92.0819 17.6883 93.2977 17.6117 93.783 17.5351C94.8252 17.0446 95.6987 15.9003 96.0052 15.3895C95.2083 14.899 94.958 14.0612 94.9324 13.7036C93.829 13.5197 90.488 12.2988 88.9554 11.7113C88.4446 11.0983 87.193 9.67299 86.2734 8.87605C85.3539 8.07912 81.8545 7.1136 80.2198 6.73046L80.8328 8.56954H79.6068C78.0742 5.99483 74.2683 3.51207 72.5569 2.59253Z" fill="white"/>
<path d="M85.6456 12.2221C85.4459 11.7561 84.1199 10.8629 83.4819 10.4745C83.5485 10.3414 85.7843 10.3635 86.8939 10.3913L88.3918 12.2221H85.6456Z" fill="black"/>
</svg>
