<svg width="38" height="54" viewBox="0 0 38 54" fill="none" xmlns="http://www.w3.org/2000/svg">
<path d="M37 19C37 28.96 19 53 19 53C19 53 1 28.96 1 19C1 14.2261 2.89642 9.64773 6.27208 6.27208C9.64773 2.89642 14.2261 1 19 1C23.7739 1 28.3523 2.89642 31.7279 6.27208C35.1036 9.64773 37 14.2261 37 19V19Z" stroke="#000001" stroke-width="2" stroke-linecap="round" stroke-linejoin="round"/>
<path d="M18.999 25.0002C22.3127 25.0002 24.999 22.314 24.999 19.0002C24.999 15.6865 22.3127 13.0002 18.999 13.0002C15.6853 13.0002 12.999 15.6865 12.999 19.0002C12.999 22.314 15.6853 25.0002 18.999 25.0002Z" stroke="#000001" stroke-width="2" stroke-linecap="round" stroke-linejoin="round"/>
</svg>
