<svg width="173" height="50" viewBox="0 0 173 50" fill="none" xmlns="http://www.w3.org/2000/svg">
<path d="M11.371 0C10.7594 3.66931 11.8169 7.70809 12.4221 9.26882C5.38924 11.6386 1.21034 19.2384 0 22.7421C0.305776 22.207 2.42069 21.4361 3.43992 21.1176C2.35697 22.551 0.324836 26.8509 0.859943 32.5842C1.39505 38.3175 5.73324 43.7004 7.83545 45.6752C7.29399 45.1019 6.11553 43.0188 5.73331 39.2731C5.35109 35.5273 7.86733 31.6605 9.17323 30.1953C7.5488 35.5464 9.07767 41.1842 13.6643 45.8663C17.3336 49.6121 23.2516 50.1345 25.4176 49.9752C26.3413 49.9752 29.7176 49.7841 32.7753 48.3508C36.31 46.6939 39.0819 44.1464 40.6108 41.5664C40.7163 41.3884 41.5664 40.2286 43.0952 36.3109C44.65 32.3267 44.0189 27.5517 43.3819 25.6087C43.6112 28.8958 41.8211 33.5398 40.8974 35.4509C40.821 33.5398 39.8463 31.1509 39.3686 30.1953C38.5723 28.6983 36.0624 25.6469 32.3931 25.4176C27.8064 25.1309 26.4687 25.4176 23.9842 27.3287C21.4998 29.2398 20.9265 32.202 21.4043 34.5909C21.882 36.9797 23.3032 38.5341 26.0864 38.4131C28.2842 38.3175 28.7301 37.1071 28.6664 36.3109C28.6027 36.6612 28.074 37.2473 26.4687 36.7886C24.8633 36.33 25.099 34.6227 25.4176 33.8264C26.0227 32.6798 27.9402 30.826 30.7686 32.5842C33.5971 34.3424 33.2849 37.139 32.7753 38.3175C32.1701 39.4642 30.2717 41.7193 27.5198 41.5664C24.0798 41.3753 21.9776 40.7064 19.9709 38.0308C17.9643 35.3553 18.6332 31.1509 19.5887 29.2398C20.5443 27.3287 23.2198 24.9398 26.8509 23.6021C30.482 22.2643 35.7375 23.3154 37.6486 23.6021C39.1775 23.8314 40.3241 23.3154 40.7063 23.0287C42.6939 21.8821 44.7196 18.4102 45.4841 16.8177C45.4841 16.8177 42.1215 15.6628 39.9419 15.0021C38.7891 14.6527 38.1229 14.5218 36.9797 14.1421C35.9601 13.8034 34.3997 13.1866 34.3997 13.1866C31.7242 10.3581 30.1635 9.14142 29.7175 8.8866C27.2713 7.73995 22.8376 6.87995 20.9265 6.59329C19.5505 4.45286 13.9828 1.30592 11.371 0Z" fill="black"/>
<path d="M13.196 3.24074C12.8129 9.84993 17.6022 13.1066 18.56 13.4898C16.0313 14.3327 13.8665 12.2446 13.1002 11.0951C8.34927 12.781 4.99039 17.2893 3.90482 19.3327C4.82436 18.7197 7.16158 18.2471 8.21524 18.0875C7.44896 18.758 4.76694 21.1526 3.42596 25.463C2.03907 29.9209 3.17054 35.1692 4.09647 37.3404C4.09647 33.7388 6.84232 29.9649 8.21524 28.5281C8.21524 20.099 13.7708 15.9483 16.5486 14.9266C13.1769 17.6086 11.6954 22.0466 11.3762 23.9304C14.6712 20.2522 20.4758 19.5881 22.9662 19.7158C15.1501 23.0875 12.0147 27.9215 11.4719 30.0607C11.1559 31.3059 10.2842 35.348 12.0466 40.4055C13.8091 45.463 19.7414 47.3659 22.4873 47.6852C15.8206 45.0798 14.0901 39.1922 14.0581 36.5741C14.9777 40.7886 19.1667 43.758 21.1463 44.7158C22.615 45.514 26.6635 46.9764 31.108 46.44C35.5524 45.9036 38.0684 42.3212 38.7708 40.5971C39.3952 39.0645 39.7286 36.1909 38.675 33.03C37.5525 29.6624 34.2369 27.8257 32.5447 27.3787C31.4272 27.0913 28.2732 26.6135 25.5524 28.5281C22.9662 30.348 22.9981 33.8602 23.5409 35.5204C23.509 34.4668 24.039 32.0722 26.4145 30.9227C28.7899 29.7733 31.108 30.5715 31.97 31.1143C33.4387 31.8487 36.0888 34.3135 34.9394 38.2982C33.7899 42.2829 30.629 43.4706 29.1922 43.5664C27.6277 43.6303 23.8857 43.3748 21.4336 41.8423C18.9815 40.3097 17.6022 37.8831 17.2191 36.8614C16.9636 36.3186 16.5677 34.4476 17.0275 31.3059C17.4873 28.1641 20.3481 25.2714 21.721 24.2178C22.6788 23.5473 25.2842 22.0913 28.0428 21.6315C30.7248 20.8653 34.7159 21.3761 36.3761 21.7273C37.6022 22.1105 39.122 22.0147 39.7286 21.9189C41.0313 21.3059 42.1233 19.8755 42.5064 19.2369C41.5103 18.6239 41.1973 17.5766 41.1654 17.1296C39.7861 16.8997 35.6099 15.3736 33.6942 14.6392C33.0556 13.8729 31.4911 12.0913 30.3417 11.0951C29.1922 10.099 24.818 8.89208 22.7746 8.41315L23.5409 10.712H22.0083C20.0926 7.49361 15.3353 4.39016 13.196 3.24074Z" fill="white"/>
<path d="M29.5562 15.2778C29.3065 14.6952 27.6491 13.5787 26.8516 13.0933C26.9348 12.9268 29.7295 12.9546 31.1165 12.9893L32.9889 15.2778H29.5562Z" fill="black"/>
<path d="M53.4045 21.2321V8.63214H54.6285V14.4641H62.1885V8.63214H63.4125V21.2321H62.1885V14.8961H54.6285V21.2321H53.4045ZM67.0198 8.63214H68.2438V16.2281C68.2438 17.6801 68.5978 18.8141 69.3058 19.6301C70.0258 20.4341 71.0338 20.8361 72.3298 20.8361C73.1458 20.8361 73.8538 20.6801 74.4538 20.3681C75.0658 20.0441 75.5338 19.6001 75.8578 19.0361C76.1938 18.4721 76.3498 17.8241 76.3258 17.0921L76.0198 8.63214H77.2438L76.9378 17.0921C76.8898 18.5321 76.4578 19.6241 75.6418 20.3681C74.8378 21.1121 73.6858 21.4841 72.1858 21.4841C70.5658 21.4841 69.2998 21.0161 68.3878 20.0801C67.4758 19.1321 67.0198 17.8361 67.0198 16.1921V8.63214ZM80.3911 21.2321L80.8411 8.38014H81.0571L90.1111 19.3241H90.2191L89.8231 8.63214H91.0471L90.5971 21.4841H90.3811L81.3271 10.5401H81.2191L81.6151 21.2321H80.3911ZM94.5619 21.2321V8.63214H98.5219C99.9139 8.63214 101.126 8.89614 102.158 9.42414C103.19 9.95214 103.994 10.6901 104.57 11.6381C105.146 12.5741 105.434 13.6721 105.434 14.9321C105.434 16.1921 105.146 17.2961 104.57 18.2441C103.994 19.1801 103.19 19.9121 102.158 20.4401C101.126 20.9681 99.9139 21.2321 98.5219 21.2321H94.5619ZM98.5219 9.06414H95.7859V20.8001H98.5219C100.262 20.8001 101.618 20.2841 102.59 19.2521C103.574 18.2201 104.066 16.7801 104.066 14.9321C104.066 13.0841 103.574 11.6441 102.59 10.6121C101.618 9.58014 100.262 9.06414 98.5219 9.06414ZM108.322 21.2321V8.63214H109.546V21.2321H108.322ZM112.428 14.9321C112.428 14.0081 112.59 13.1501 112.914 12.3581C113.25 11.5541 113.712 10.8581 114.3 10.2701C114.9 9.67014 115.596 9.20814 116.388 8.88414C117.192 8.54814 118.056 8.38014 118.98 8.38014C119.904 8.38014 120.762 8.54814 121.554 8.88414C122.358 9.20814 123.054 9.67014 123.642 10.2701C124.242 10.8581 124.704 11.5541 125.028 12.3581C125.364 13.1501 125.532 14.0081 125.532 14.9321C125.532 15.8561 125.364 16.7201 125.028 17.5241C124.704 18.3161 124.242 19.0121 123.642 19.6121C123.054 20.2001 122.358 20.6621 121.554 20.9981C120.762 21.3221 119.904 21.4841 118.98 21.4841C118.056 21.4841 117.192 21.3221 116.388 20.9981C115.596 20.6621 114.9 20.2001 114.3 19.6121C113.712 19.0121 113.25 18.3161 112.914 17.5241C112.59 16.7201 112.428 15.8561 112.428 14.9321ZM113.796 14.9321C113.796 16.1561 114.012 17.2301 114.444 18.1541C114.876 19.0661 115.482 19.7801 116.262 20.2961C117.042 20.8001 117.948 21.0521 118.98 21.0521C120.012 21.0521 120.918 20.8001 121.698 20.2961C122.478 19.7801 123.084 19.0601 123.516 18.1361C123.948 17.2121 124.164 16.1441 124.164 14.9321C124.164 13.7201 123.948 12.6581 123.516 11.7461C123.084 10.8221 122.478 10.1021 121.698 9.58614C120.918 9.07014 120.012 8.81214 118.98 8.81214C117.948 8.81214 117.042 9.07014 116.262 9.58614C115.494 10.0901 114.888 10.8041 114.444 11.7281C114.012 12.6401 113.796 13.7081 113.796 14.9321ZM128.407 8.63214H130.819C132.091 8.63214 133.075 8.90214 133.771 9.44214C134.479 9.97014 134.833 10.7141 134.833 11.6741C134.833 12.4181 134.611 13.0361 134.167 13.5281C133.735 14.0201 133.105 14.3501 132.277 14.5181V14.6261C133.069 14.7821 133.717 15.1541 134.221 15.7421C134.725 16.3301 135.103 17.0561 135.355 17.9201C135.583 18.7121 135.805 19.3301 136.021 19.7741C136.249 20.2061 136.495 20.5181 136.759 20.7101C137.035 20.9021 137.359 21.0401 137.731 21.1241V21.2321H136.993C136.465 21.2321 136.027 21.1361 135.679 20.9441C135.343 20.7521 135.055 20.4281 134.815 19.9721C134.575 19.5161 134.347 18.8861 134.131 18.0821C133.783 16.8461 133.321 15.9701 132.745 15.4541C132.169 14.9381 131.467 14.6801 130.639 14.6801H130.531V14.3561H130.639C132.571 14.3561 133.537 13.4681 133.537 11.6921C133.537 9.94014 132.631 9.06414 130.819 9.06414H129.631V21.2321H128.407V8.63214ZM138.876 8.63214H140.1V16.2281C140.1 17.6801 140.454 18.8141 141.162 19.6301C141.882 20.4341 142.89 20.8361 144.186 20.8361C145.002 20.8361 145.71 20.6801 146.31 20.3681C146.922 20.0441 147.39 19.6001 147.714 19.0361C148.05 18.4721 148.206 17.8241 148.182 17.0921L147.876 8.63214H149.1L148.794 17.0921C148.746 18.5321 148.314 19.6241 147.498 20.3681C146.694 21.1121 145.542 21.4841 144.042 21.4841C142.422 21.4841 141.156 21.0161 140.244 20.0801C139.332 19.1321 138.876 17.8361 138.876 16.1921V8.63214ZM56.2845 42.2321V29.9921C56.1045 29.9921 55.7325 30.0281 55.1685 30.1001L51.6405 30.5501V29.6321H62.1525V30.5501L58.6245 30.1001C58.0605 30.0281 57.6885 29.9921 57.5085 29.9921V42.2321H56.2845ZM63.9963 29.6321H65.2203V37.2281C65.2203 38.6801 65.5743 39.8141 66.2823 40.6301C67.0023 41.4341 68.0103 41.8361 69.3063 41.8361C70.1223 41.8361 70.8303 41.6801 71.4303 41.3681C72.0423 41.0441 72.5103 40.6001 72.8343 40.0361C73.1703 39.4721 73.3263 38.8241 73.3023 38.0921L72.9963 29.6321H74.2203L73.9143 38.0921C73.8663 39.5321 73.4343 40.6241 72.6183 41.3681C71.8143 42.1121 70.6623 42.4841 69.1623 42.4841C67.5423 42.4841 66.2763 42.0161 65.3643 41.0801C64.4523 40.1321 63.9963 38.8361 63.9963 37.1921V29.6321ZM77.4577 29.6321H78.6817V37.2281C78.6817 38.6801 79.0357 39.8141 79.7437 40.6301C80.4637 41.4341 81.4717 41.8361 82.7677 41.8361C83.5837 41.8361 84.2917 41.6801 84.8917 41.3681C85.5037 41.0441 85.9717 40.6001 86.2957 40.0361C86.6317 39.4721 86.7877 38.8241 86.7637 38.0921L86.4577 29.6321H87.6817L87.3757 38.0921C87.3277 39.5321 86.8957 40.6241 86.0797 41.3681C85.2757 42.1121 84.1237 42.4841 82.6237 42.4841C81.0037 42.4841 79.7377 42.0161 78.8257 41.0801C77.9137 40.1321 77.4577 38.8361 77.4577 37.1921V29.6321ZM91.099 29.6321H92.323V41.8721C92.551 41.8721 92.911 41.8361 93.403 41.7641L96.391 41.3141V42.2321H91.099V29.6321ZM98.4959 42.2321V29.6321H99.7199V42.2321H98.4959ZM111.278 42.2321L105.374 35.7701L110.846 29.6321H112.394L106.472 35.2661L112.898 42.2321H111.278ZM103.502 42.2321V29.6321H104.726V42.2321H103.502Z" fill="black"/>
</svg>
