<svg width="20" height="20" viewBox="0 0 20 20" fill="none" xmlns="http://www.w3.org/2000/svg">
<g clip-path="url(#clip0_123_3033)">
<path d="M18.9895 9.82596C19.0137 9.63403 18.9959 9.43932 18.9375 9.25451C18.879 9.06971 18.7812 8.89898 18.6503 8.75346C18.5178 8.60679 18.3548 8.48924 18.172 8.40863C17.9892 8.32803 17.7909 8.28621 17.5902 8.28596H2.40979C2.2091 8.28621 2.01076 8.32803 1.82798 8.40863C1.6452 8.48924 1.48216 8.60679 1.3497 8.75346C1.21882 8.89898 1.12096 9.06971 1.0625 9.25451C1.00405 9.43932 0.986322 9.63403 1.01047 9.82596L2.07056 18.0759C2.11222 18.4113 2.27934 18.72 2.54003 18.9432C2.80073 19.1664 3.13675 19.2884 3.48401 19.2859H16.5443C16.8915 19.2884 17.2275 19.1664 17.4882 18.9432C17.7489 18.72 17.916 18.4113 17.9577 18.0759L18.9895 9.82596Z" stroke="white" stroke-width="2" stroke-linecap="round" stroke-linejoin="round"/>
<path d="M4 8.28596V7.58596C4 5.9151 4.63214 4.31267 5.75736 3.13119C6.88258 1.94971 8.4087 1.28596 10 1.28596C11.5913 1.28596 13.1174 1.94971 14.2426 3.13119C15.3679 4.31267 16 5.9151 16 7.58596V8.28596" stroke="white" stroke-width="2" stroke-linecap="round" stroke-linejoin="round"/>
<path d="M7.14282 12.1429V15" stroke="white" stroke-width="2" stroke-linecap="round" stroke-linejoin="round"/>
<path d="M12.8571 12.1429V15" stroke="white" stroke-width="2" stroke-linecap="round" stroke-linejoin="round"/>
</g>
<defs>
<clipPath id="clip0_123_3033">
<rect width="20" height="20" fill="white"/>
</clipPath>
</defs>
</svg>
