<svg width="20" height="20" viewBox="0 0 20 20" fill="none" xmlns="http://www.w3.org/2000/svg">
<path opacity="0.4" d="M11.4011 7.76832V6.15115C11.0836 6.15115 10.8203 5.89541 10.8203 5.58702V3.66146C10.8203 3.40497 10.6113 3.20264 10.348 3.20264H5.02848C3.35596 3.20264 1.99316 4.52571 1.99316 6.15115V8.09853C1.99316 8.24971 2.05511 8.39263 2.16351 8.49793C2.27192 8.60248 2.41904 8.66266 2.5739 8.66266C3.16238 8.66266 3.61148 9.06883 3.61148 9.60287C3.61148 10.1602 3.15464 10.604 2.58164 10.6108C2.26417 10.6108 1.99316 10.8289 1.99316 11.1448V13.0711C1.99316 14.6958 3.35596 16.0121 5.02073 16.0121H10.348C10.6113 16.0121 10.8203 15.8083 10.8203 15.5533V13.9279C10.8203 13.6127 11.0836 13.3637 11.4011 13.3637V11.9053C11.0836 11.9053 10.8203 11.6488 10.8203 11.3411V8.33245C10.8203 8.02406 11.0836 7.76832 11.4011 7.76832Z" fill="white"/>
<path d="M16.3875 9.60363C16.3875 10.1602 16.852 10.604 17.4173 10.6115C17.7348 10.6115 18.0058 10.8297 18.0058 11.1381V13.0711C18.0058 14.6966 16.6507 16.0129 14.9782 16.0129H12.4539C12.1984 16.0129 11.9816 15.809 11.9816 15.5533V13.9286C11.9816 13.6127 11.7261 13.3645 11.4009 13.3645V11.906C11.7261 11.906 11.9816 11.6495 11.9816 11.3419V8.33321C11.9816 8.02406 11.7261 7.76908 11.4009 7.76908V6.15115C11.7261 6.15115 11.9816 5.89541 11.9816 5.58702V3.66221C11.9816 3.40572 12.1984 3.20264 12.4539 3.20264H14.9782C16.6507 3.20264 18.0058 4.51894 18.0058 6.14363V8.03911C18.0058 8.18954 17.9438 8.33321 17.8354 8.43776C17.727 8.54306 17.5799 8.60324 17.425 8.60324C16.8521 8.60324 16.3875 9.05529 16.3875 9.60363Z" fill="white"/>
</svg>
