<svg width="57" height="25" viewBox="0 0 57 25" fill="none" xmlns="http://www.w3.org/2000/svg">
<g clip-path="url(#clip0_97_1638)">
<path d="M0.500567 18.0939L3.69442 15.6688C5.92912 17.6486 7.49342 17.9328 8.79702 17.9328C10.2869 17.9328 11.6836 17.6108 11.8698 16.7486C12.0094 16.0666 11.4508 15.5171 10.1751 15.214C8.73183 14.8824 7.52139 14.5982 6.16192 14.2382C2.48391 13.2531 1.44091 11.0836 1.44091 9.13215C1.44091 6.44175 3.90849 3.67554 8.40587 3.67554C13.0243 3.67554 15.7247 6.36594 15.7247 6.36594L12.7077 8.65846C11.2831 7.40801 9.44878 7.17116 8.43384 7.17116C7.40957 7.17116 6.33877 7.46485 6.17116 8.21324C6.01281 8.94274 6.67397 9.50164 7.81922 9.8237C9.11357 10.1742 10.3054 10.4869 12.1211 11.0173C14.8307 11.8036 16.6931 12.9973 16.6931 15.773C16.6931 19.5812 13.3688 21.5517 8.89935 21.5517C4.43919 21.5517 1.41294 19.1928 0.500488 18.0939" fill="black"/>
<path d="M18.0342 0H19.077V25H18.0342V0Z" fill="black"/>
<path d="M21.5166 21.0496V3.94092H34.9716V7.85331H26.2375V10.5817H32.4203V14.352H26.2375V17.1087H35.2137V21.0496H21.5166Z" fill="black"/>
<path d="M36.9829 0H38.0257V25H36.9829V0Z" fill="black"/>
<path d="M40.4653 21.0498V3.95044H50.3446C53.1846 3.95044 55.4845 5.63671 55.4845 8.27976C55.4845 10.3734 54.2182 11.5954 53.0729 12.0596C53.0729 12.0596 52.9984 12.0786 52.8773 12.088C52.9984 12.0975 53.0729 12.1164 53.0729 12.1164C55.0656 12.7606 56.4995 14.229 56.4995 16.4457C56.4995 19.2783 54.153 21.0498 51.2665 21.0498H40.4653ZM45.2141 17.251H49.8232C50.6426 17.251 51.3037 16.5784 51.3037 15.6879C51.3037 14.8069 50.6426 14.1342 49.8232 14.1342H45.2141V17.251ZM45.2141 10.506H48.9759C49.8512 10.506 50.5495 9.80492 50.5495 9.00918C50.5495 8.20395 49.8512 7.50299 48.9759 7.50299H45.2141V10.506Z" fill="black"/>
</g>
<defs>
<clipPath id="clip0_97_1638">
<rect width="56" height="25" fill="white" transform="translate(0.5)"/>
</clipPath>
</defs>
</svg>
