<svg width="133" height="21" viewBox="0 0 133 21" fill="none" xmlns="http://www.w3.org/2000/svg">
<path d="M1.48514 6.04437C1.48514 9.6248 3.87591 10.9618 7.46695 11.8609C10.8847 12.6747 11.5869 13.7431 11.5869 15.0898C11.5869 16.5822 10.2491 17.6246 8.33196 17.6246C6.1884 17.5954 4.14145 16.7282 2.62926 15.2086C2.5666 15.2843 0.839026 17.4131 0.78125 17.4871C2.80453 19.389 5.47777 20.4465 8.25465 20.4434C12.0874 20.4434 14.6621 18.1649 14.6621 14.7676C14.6621 11.7942 12.8816 10.0195 8.88449 9.01206C5.26497 8.11695 4.55701 7.14047 4.55701 5.75061C4.55701 4.5414 5.58639 3.31836 7.55321 3.31836C9.35329 3.38605 11.078 4.05861 12.4487 5.22738L14.0973 2.81791C12.2857 1.28697 9.98092 0.463977 7.60936 0.50121C4.06063 0.50121 1.48514 2.83419 1.48514 6.04437Z" fill="#FF5F00"/>
<path d="M24.8893 6.07935L21.8264 15.9589C21.8264 15.9589 19.0727 6.20629 19.0523 6.13224H15.9561L20.3429 20.2823H23.0576C23.0787 20.2123 26.171 10.4939 26.171 10.4939C26.171 10.4939 29.2339 20.2115 29.2567 20.2823H31.9721C31.9941 20.2115 36.3663 6.26325 36.4095 6.13224H33.3897L30.5652 15.9565L27.4729 6.07935H24.8893Z" fill="#FF5F00"/>
<path d="M37.8887 13.1541V13.2078C37.8887 17.4303 40.8116 20.4956 44.8388 20.4956C46.6517 20.553 48.4369 20.0408 49.9434 19.0309C49.919 18.9577 49.1509 16.6711 49.1134 16.5612C47.8813 17.435 46.3965 17.8804 44.8869 17.829C43.8966 17.8759 42.9271 17.5347 42.1844 16.8779C41.4418 16.2211 40.9846 15.3006 40.9101 14.312L40.9011 14.2543H50.9386V14.2347L50.985 13.395C50.985 9.63307 48.9792 5.83862 44.4995 5.83862C40.7303 5.83862 37.8887 8.98289 37.8887 13.1541ZM40.8881 12.1573C41.1835 9.86661 42.5929 8.38805 44.4775 8.38805C46.4134 8.38805 47.7602 9.83243 47.9905 12.1581L47.9953 12.2142H40.8784L40.8881 12.1573Z" fill="#FF5F00"/>
<path d="M64.3646 0.501465V7.33114L64.2832 7.26604C63.1168 6.29383 61.6328 5.78568 60.1153 5.83875C56.9954 5.83875 53.8364 8.3418 53.8364 13.1274V13.1794C53.8364 17.965 57.1663 20.4697 60.4546 20.4697C62.7784 20.4177 65.0958 20.2048 67.3901 19.8325V0.501465H64.3646ZM56.8855 13.1794V13.1274C56.8855 10.4746 58.5594 8.54848 60.8647 8.54848C63.0016 8.54848 64.4175 9.97577 64.4175 10.5543V17.5167L64.376 17.5248C63.2143 17.7023 62.0397 17.7807 60.8647 17.7591C58.596 17.7591 56.8855 15.7907 56.8855 13.1794Z" fill="#FF5F00"/>
<path d="M71.4146 0.501465V19.8325C73.7089 20.2048 76.0263 20.4177 78.3501 20.4697C81.6392 20.4697 84.969 17.965 84.969 13.1794V13.1274C84.969 8.3418 81.8093 5.83875 78.6894 5.83875C77.1718 5.78583 75.688 6.29396 74.5214 7.26604L74.44 7.33114V0.501465H71.4146ZM74.4254 17.5248L74.3847 17.5167V10.5543C74.3847 9.97577 75.7998 8.54848 77.9359 8.54848C80.2412 8.54848 81.9151 10.4746 81.9151 13.1274V13.1794C81.9151 15.7907 80.2062 17.7591 77.9359 17.7591C76.7634 17.7803 75.5912 17.7019 74.4319 17.5248H74.4254Z" fill="#FF5F00"/>
<path d="M88.6897 7.07282C88.7165 7.15419 89.479 9.47985 89.5116 9.57668C90.7229 9.00952 92.0434 8.71376 93.3809 8.71006C95.578 8.71006 96.7905 9.8029 96.7905 11.7876V12.1261L96.7229 12.1033C95.5142 11.6922 94.2433 11.494 92.9667 11.5174C89.536 11.5174 87.4878 13.2304 87.4878 16.1012V16.1549C87.4878 19.1185 89.9795 20.4677 92.2946 20.4677C94.7955 20.4263 97.2906 20.2132 99.7623 19.8297V11.8389C99.7623 7.96549 97.7076 5.91732 93.822 5.91732C92.0441 5.89297 90.2856 6.28889 88.6897 7.07282ZM90.4881 15.993V15.9393C90.4881 14.5315 91.6761 13.6917 93.6616 13.6917C94.736 13.6882 95.8019 13.8813 96.8068 14.2614L96.8385 14.2736V17.8711L96.797 17.8784C95.5981 18.0675 94.3854 18.1543 93.1718 18.138C91.5679 18.1323 90.4881 17.2738 90.4881 15.993Z" fill="#FF5F00"/>
<path d="M103.583 6.47464V20.1747H106.608V8.78239L106.65 8.77507C107.671 8.62142 108.702 8.54714 109.735 8.55292C111.594 8.55292 112.704 9.91266 112.704 12.1903V20.1747H115.729V11.2236C115.729 7.9003 113.887 5.83667 110.923 5.83667C108.464 5.8726 106.011 6.08581 103.583 6.47464Z" fill="#FF5F00"/>
<path d="M119.603 0.501465V20.1751H122.627V16.161L124.595 14.0371C124.595 14.0371 128.693 20.1304 128.724 20.1751H132.218C132.115 20.0197 126.643 11.8352 126.643 11.8352L132.013 6.13251H128.352C128.321 6.16587 122.62 12.4796 122.62 12.4796V0.501465H119.603Z" fill="#FF5F00"/>
</svg>
