<svg width="45" height="45" viewBox="0 0 45 45" fill="none" xmlns="http://www.w3.org/2000/svg">
<g clip-path="url(#clip0_97_1621)">
<path d="M28.157 41.7858C30.1364 43.0628 32.4952 43.6193 34.8367 43.3618C37.1782 43.1042 39.3596 42.0483 41.0141 40.3715L42.4605 38.9573C43.0947 38.3086 43.4497 37.4376 43.4497 36.5305C43.4497 35.6234 43.0947 34.7523 42.4605 34.1037L36.3212 28.0287C35.6781 27.3966 34.8123 27.0424 33.9105 27.0424C33.0087 27.0424 32.143 27.3966 31.4998 28.0287V28.0287C30.8512 28.6628 29.9801 29.0179 29.073 29.0179C28.1659 29.0179 27.2949 28.6628 26.6462 28.0287L17.0034 18.3858C16.6817 18.0688 16.4263 17.691 16.2519 17.2744C16.0776 16.8578 15.9878 16.4107 15.9878 15.959C15.9878 15.5074 16.0776 15.0603 16.2519 14.6437C16.4263 14.2271 16.6817 13.8493 17.0034 13.5323V13.5323C17.6355 12.8891 17.9897 12.0233 17.9897 11.1215C17.9897 10.2197 17.6355 9.35402 17.0034 8.71083L10.8962 2.60369C10.2476 1.96956 9.37656 1.6145 8.46946 1.6145C7.56236 1.6145 6.6913 1.96956 6.04268 2.60369L4.62839 4.05012C2.95165 5.70464 1.89572 7.88605 1.63815 10.2275C1.38059 12.569 1.9371 14.9278 3.21411 16.9073C9.86782 26.7132 18.3339 35.1574 28.157 41.7858V41.7858Z" stroke="#000001" stroke-width="2" stroke-linecap="round" stroke-linejoin="round"/>
</g>
<defs>
<clipPath id="clip0_97_1621">
<rect width="45" height="45" fill="white"/>
</clipPath>
</defs>
</svg>
